<?xml version="1.0" encoding="UTF-8" standalone="no"?>
<svg width="400px" height="400px" viewBox="0 0 400 400" version="1.1" xmlns="http://www.w3.org/2000/svg" xmlns:xlink="http://www.w3.org/1999/xlink">
    <g stroke="none" fill="none" fill-rule="evenodd">
        <path d="M400,400 L320,400 L320,320 L400,320 L400,400 Z M320,400 L240,400 L240,320 L320,320 L320,400 Z M160,400 L80,400 L80,320 L160,320 L160,400 Z M80,400 L5.68434189e-14,400 L7.10542736e-14,320 L80,320 L80,400 Z M240,320 L160,320 L160,240 L240,240 L240,320 Z M400,240 L320,240 L320,160 L400,160 L400,240 Z M240,240 L160,240 L160,160 L240,160 L240,240 Z M80,240 L5.68434189e-14,240 L7.10542736e-14,160 L80,160 L80,240 Z M400,160 L320,160 L320,80 L400,80 L400,160 Z M80,160 L1.64845915e-12,160 L1.66267e-12,80 L80,80 L80,160 Z M400,80 L320,80 L320,9.9475983e-14 L400,1.13686838e-13 L400,80 Z M320,80 L240,80 L240,9.9475983e-14 L320,1.13686838e-13 L320,80 Z M160,80 L80,80 L80,-1.42108547e-14 L160,0 L160,80 Z M80,80 L5.68434189e-14,80 L7.10542736e-14,-1.42108547e-14 L80,0 L80,80 Z" fill="#A1DE80"></path>
    </g>
</svg>
