<?xml version="1.0" encoding="UTF-8" standalone="no"?>
<svg width="3280px" height="400px" viewBox="0 0 3280 400" version="1.1" xmlns="http://www.w3.org/2000/svg" xmlns:xlink="http://www.w3.org/1999/xlink">
    <!-- Generator: Sketch 3.8.2 (29753) - http://www.bohemiancoding.com/sketch -->
    <title>Logo Slice</title>
    <desc>Created with Sketch.</desc>
    <defs></defs>
    <g id="Page-1" stroke="none" stroke-width="1" fill="none" fill-rule="evenodd">
        <path d="M400,400 L320,400 L320,320 L400,320 L400,400 Z M320,400 L240,400 L240,320 L320,320 L320,400 Z M160,400 L80,400 L80,320 L160,320 L160,400 Z M80,400 L0,400 L1.42108547e-14,320 L80,320 L80,400 Z M240,320 L160,320 L160,240 L240,240 L240,320 Z M400,240 L320,240 L320,160 L400,160 L400,240 Z M240,240 L160,240 L160,160 L240,160 L240,240 Z M80,240 L0,240 L1.42108547e-14,160 L80,160 L80,240 Z M400,160 L320,160 L320,80 L400,80 L400,160 Z M80,160 L1.8189894e-12,160 L1.83320026e-12,80 L80,80 L80,160 Z M400,80 L320,80 L320,1.13686838e-13 L400,1.27897692e-13 L400,80 Z M320,80 L240,80 L240,1.13686838e-13 L320,1.27897692e-13 L320,80 Z M160,80 L80,80 L80,0 L160,1.42108547e-14 L160,80 Z M80,80 L0,80 L1.42108547e-14,0 L80,1.42108547e-14 L80,80 Z M480,400 L400,400 L400,320 L480,320 L480,400 Z M560,400 L480,400 L480,320 L560,320 L560,400 Z M560,320 L480,320 L480,240 L560,240 L560,320 Z M560,240 L480,240 L480,160 L560,160 L560,240 Z M560,160 L480,160 L480,80 L560,80 L560,160 Z M560,80 L480,80 L480,0 L560,1.42108547e-14 L560,80 Z M640,80 L560,80 L560,0 L640,1.42108547e-14 L640,80 Z M720,80 L640,80 L640,0 L720,1.42108547e-14 L720,80 Z M800,80 L720,80 L720,0 L800,1.42108547e-14 L800,80 Z M880,80 L800,80 L800,0 L880,1.42108547e-14 L880,80 Z M880,160 L800,160 L800,80 L880,80 L880,160 Z M880,240 L800,240 L800,160 L880,160 L880,240 Z M880,320 L800,320 L800,240 L880,240 L880,320 Z M880,400 L800,400 L800,320 L880,320 L880,400 Z M800,400 L720,400 L720,320 L800,320 L800,400 Z M720,400 L640,400 L640,320 L720,320 L720,400 Z M720,320 L640,320 L640,240 L720,240 L720,320 Z M720,240 L640,240 L640,160 L720,160 L720,240 Z M800,240 L720,240 L720,160 L800,160 L800,240 Z M800,320 L720,320 L720,240 L800,240 L800,320 Z M960,400 L880,400 L880,320 L960,320 L960,400 Z M1040,400 L960,400 L960,320 L1040,320 L1040,400 Z M1040,320 L960,320 L960,240 L1040,240 L1040,320 Z M1040,240 L960,240 L960,160 L1040,160 L1040,240 Z M1040,160 L960,160 L960,80 L1040,80 L1040,160 Z M1040,80 L960,80 L960,0 L1040,1.42108547e-14 L1040,80 Z M1120,80 L1040,80 L1040,0 L1120,1.42108547e-14 L1120,80 Z M1200,80 L1120,80 L1120,0 L1200,1.42108547e-14 L1200,80 Z M1280,80 L1200,80 L1200,0 L1280,1.42108547e-14 L1280,80 Z M1360,80 L1280,80 L1280,0 L1360,1.42108547e-14 L1360,80 Z M1360,160 L1280,160 L1280,80 L1360,80 L1360,160 Z M1360,240 L1280,240 L1280,160 L1360,160 L1360,240 Z M1360,400 L1280,400 L1280,320 L1360,320 L1360,400 Z M1280,400 L1200,400 L1200,320 L1280,320 L1280,400 Z M1200,400 L1120,400 L1120,320 L1200,320 L1200,400 Z M1120,400 L1040,400 L1040,320 L1120,320 L1120,400 Z M1200,240 L1120,240 L1120,160 L1200,160 L1200,240 Z M1440,400 L1360,400 L1360,320 L1440,320 L1440,400 Z M1520,400 L1440,400 L1440,320 L1520,320 L1520,400 Z M1520,320 L1440,320 L1440,240 L1520,240 L1520,320 Z M1520,240 L1440,240 L1440,160 L1520,160 L1520,240 Z M1520,160 L1440,160 L1440,80 L1520,80 L1520,160 Z M1520,80 L1440,80 L1440,0 L1520,1.42108547e-14 L1520,80 Z M1600,80 L1520,80 L1520,0 L1600,1.42108547e-14 L1600,80 Z M1600,160 L1520,160 L1520,80 L1600,80 L1600,160 Z M1760,80 L1680,80 L1680,0 L1760,1.42108547e-14 L1760,80 Z M1840,80 L1760,80 L1760,0 L1840,1.42108547e-14 L1840,80 Z M1840,160 L1760,160 L1760,80 L1840,80 L1840,160 Z M1840,240 L1760,240 L1760,160 L1840,160 L1840,240 Z M1760,240 L1680,240 L1680,160 L1760,160 L1760,240 Z M1760,320 L1680,320 L1680,240 L1760,240 L1760,320 Z M1840,320 L1760,320 L1760,240 L1840,240 L1840,320 Z M1840,400 L1760,400 L1760,320 L1840,320 L1840,400 Z M1760,160 L1680,160 L1680,80 L1760,80 L1760,160 Z M1600,400 L1520,400 L1520,320 L1600,320 L1600,400 Z M1600,240 L1520,240 L1520,160 L1600,160 L1600,240 Z M1600,320 L1520,320 L1520,240 L1600,240 L1600,320 Z M1920,400 L1840,400 L1840,320 L1920,320 L1920,400 Z M2000,400 L1920,400 L1920,320 L2000,320 L2000,400 Z M2000,320 L1920,320 L1920,240 L2000,240 L2000,320 Z M2000,240 L1920,240 L1920,160 L2000,160 L2000,240 Z M2000,160 L1920,160 L1920,80 L2000,80 L2000,160 Z M2000,80 L1920,80 L1920,0 L2000,1.42108547e-14 L2000,80 Z M2080,80 L2000,80 L2000,0 L2080,1.42108547e-14 L2080,80 Z M2160,160 L2080,160 L2080,80 L2160,80 L2160,160 Z M2240,160 L2160,160 L2160,80 L2240,80 L2240,160 Z M2320,160 L2240,160 L2240,80 L2320,80 L2320,160 Z M2320,320 L2240,320 L2240,240 L2320,240 L2320,320 Z M2240,80 L2160,80 L2160,0 L2240,1.42108547e-14 L2240,80 Z M2320,80 L2240,80 L2240,0 L2320,1.42108547e-14 L2320,80 Z M2240,320 L2160,320 L2160,240 L2240,240 L2240,320 Z M2320,240 L2240,240 L2240,160 L2320,160 L2320,240 Z M2320,400 L2240,400 L2240,320 L2320,320 L2320,400 Z M2240,400 L2160,400 L2160,320 L2240,320 L2240,400 Z M2160,400 L2080,400 L2080,320 L2160,320 L2160,400 Z M2080,400 L2000,400 L2000,320 L2080,320 L2080,400 Z M2080,320 L2000,320 L2000,240 L2080,240 L2080,320 Z M2080,240 L2000,240 L2000,160 L2080,160 L2080,240 Z M2240,240 L2160,240 L2160,160 L2240,160 L2240,240 Z M2080,160 L2000,160 L2000,80 L2080,80 L2080,160 Z M2400,400 L2320,400 L2320,320 L2400,320 L2400,400 Z M2480,400 L2400,400 L2400,320 L2480,320 L2480,400 Z M2480,320 L2400,320 L2400,240 L2480,240 L2480,320 Z M2480,240 L2400,240 L2400,160 L2480,160 L2480,240 Z M2480,160 L2400,160 L2400,80 L2480,80 L2480,160 Z M2480,80 L2400,80 L2400,0 L2480,1.42108547e-14 L2480,80 Z M2560,80 L2480,80 L2480,0 L2560,1.42108547e-14 L2560,80 Z M2640,80 L2560,80 L2560,0 L2640,1.42108547e-14 L2640,80 Z M2720,80 L2640,80 L2640,0 L2720,1.42108547e-14 L2720,80 Z M2800,80 L2720,80 L2720,0 L2800,1.42108547e-14 L2800,80 Z M2560,240 L2480,240 L2480,160 L2560,160 L2560,240 Z M2560,320 L2480,320 L2480,240 L2560,240 L2560,320 Z M2720,320 L2640,320 L2640,240 L2720,240 L2720,320 Z M2800,320 L2720,320 L2720,240 L2800,240 L2800,320 Z M2800,240 L2720,240 L2720,160 L2800,160 L2800,240 Z M2640,240 L2560,240 L2560,160 L2640,160 L2640,240 Z M2880,400 L2800,400 L2800,320 L2880,320 L2880,400 Z M2960,400 L2880,400 L2880,320 L2960,320 L2960,400 Z M2960,320 L2880,320 L2880,240 L2960,240 L2960,320 Z M2960,240 L2880,240 L2880,160 L2960,160 L2960,240 Z M2960,160 L2880,160 L2880,80 L2960,80 L2960,160 Z M2960,80 L2880,80 L2880,0 L2960,1.42108547e-14 L2960,80 Z M3120,320 L3040,320 L3040,240 L3120,240 L3120,320 Z M3120,160 L3040,160 L3040,80 L3120,80 L3120,160 Z M3200,320 L3120,320 L3120,240 L3200,240 L3200,320 Z M3280,80 L3200,80 L3200,0 L3280,1.42108547e-14 L3280,80 Z M3280,160 L3200,160 L3200,80 L3280,80 L3280,160 Z M3280,240 L3200,240 L3200,160 L3280,160 L3280,240 Z M3280,320 L3200,320 L3200,240 L3280,240 L3280,320 Z M3200,400 L3120,400 L3120,320 L3200,320 L3200,400 Z M3280,400 L3200,400 L3200,320 L3280,320 L3280,400 Z" id="Combined-Shape" fill="#A1DE80"></path>
    </g>
</svg>